<svg xmlns="http://www.w3.org/2000/svg" xmlns:xlink="http://www.w3.org/1999/xlink" width="500" zoomAndPan="magnify" viewBox="0 0 375 374.999991" height="500" preserveAspectRatio="xMidYMid meet" version="1.0"><defs><clipPath id="id1"><path d="M 3.800781 3.800781 L 371.199219 3.800781 L 371.199219 371.199219 L 3.800781 371.199219 Z M 3.800781 3.800781 " clip-rule="nonzero"/></clipPath><clipPath id="id2"><path d="M 221 118 L 267.542969 118 L 267.542969 167.71875 L 221 167.71875 Z M 221 118 " clip-rule="nonzero"/></clipPath><clipPath id="id3"><path d="M 176.792969 83.71875 L 228 83.71875 L 228 140 L 176.792969 140 Z M 176.792969 83.71875 " clip-rule="nonzero"/></clipPath><clipPath id="id4"><path d="M 224.960938 221.59375 L 267.65625 221.59375 L 267.65625 259.085938 L 224.960938 259.085938 Z M 224.960938 221.59375 " clip-rule="nonzero"/></clipPath><clipPath id="id5"><path d="M 67.828125 176.761719 L 148.828125 176.761719 L 148.828125 248 L 67.828125 248 Z M 67.828125 176.761719 " clip-rule="nonzero"/></clipPath><clipPath id="id6"><path d="M 135 237 L 143 237 L 143 251.761719 L 135 251.761719 Z M 135 237 " clip-rule="nonzero"/></clipPath><clipPath id="id7"><path d="M 193 283 L 211 283 L 211 302 L 193 302 Z M 193 283 " clip-rule="nonzero"/></clipPath><clipPath id="id8"><path d="M 192.300781 297.640625 L 206.820312 281.445312 L 212.40625 286.449219 L 197.886719 302.648438 Z M 192.300781 297.640625 " clip-rule="nonzero"/></clipPath><clipPath id="id9"><path d="M 192.300781 297.640625 L 206.820312 281.445312 L 212.40625 286.449219 L 197.886719 302.648438 Z M 192.300781 297.640625 " clip-rule="nonzero"/></clipPath><clipPath id="id10"><path d="M 201 183 L 221 183 L 221 204 L 201 204 Z M 201 183 " clip-rule="nonzero"/></clipPath><clipPath id="id11"><path d="M 215.976562 204.957031 L 199.804688 187.222656 L 205.902344 181.664062 L 222.070312 199.398438 Z M 215.976562 204.957031 " clip-rule="nonzero"/></clipPath><clipPath id="id12"><path d="M 215.976562 204.957031 L 199.804688 187.222656 L 205.902344 181.664062 L 222.070312 199.398438 Z M 215.976562 204.957031 " clip-rule="nonzero"/></clipPath><clipPath id="id13"><path d="M 108 269 L 130 269 L 130 281 L 108 281 Z M 108 269 " clip-rule="nonzero"/></clipPath><clipPath id="id14"><path d="M 128.304688 281.164062 L 107.363281 275.285156 L 109.390625 268.066406 L 130.332031 273.941406 Z M 128.304688 281.164062 " clip-rule="nonzero"/></clipPath><clipPath id="id15"><path d="M 128.304688 281.164062 L 107.363281 275.285156 L 109.390625 268.066406 L 130.332031 273.941406 Z M 128.304688 281.164062 " clip-rule="nonzero"/></clipPath><clipPath id="id16"><path d="M 286 172 L 309 172 L 309 181 L 286 181 Z M 286 172 " clip-rule="nonzero"/></clipPath><clipPath id="id17"><path d="M 286.496094 173.070312 L 308.242188 172.671875 L 308.378906 180.171875 L 286.632812 180.570312 Z M 286.496094 173.070312 " clip-rule="nonzero"/></clipPath><clipPath id="id18"><path d="M 286.496094 173.070312 L 308.242188 172.671875 L 308.378906 180.171875 L 286.632812 180.570312 Z M 286.496094 173.070312 " clip-rule="nonzero"/></clipPath><clipPath id="id19"><path d="M 63 125 L 72 125 L 72 148 L 63 148 Z M 63 125 " clip-rule="nonzero"/></clipPath><clipPath id="id20"><path d="M 62.992188 147.097656 L 64.902344 125.433594 L 72.371094 126.089844 L 70.464844 147.757812 Z M 62.992188 147.097656 " clip-rule="nonzero"/></clipPath><clipPath id="id21"><path d="M 62.992188 147.097656 L 64.902344 125.433594 L 72.371094 126.089844 L 70.464844 147.757812 Z M 62.992188 147.097656 " clip-rule="nonzero"/></clipPath><clipPath id="id22"><path d="M 140 99 L 159 99 L 159 117 L 140 117 Z M 140 99 " clip-rule="nonzero"/></clipPath><clipPath id="id23"><path d="M 159.585938 103.320312 L 143.523438 117.984375 L 138.464844 112.449219 L 154.527344 97.78125 Z M 159.585938 103.320312 " clip-rule="nonzero"/></clipPath><clipPath id="id24"><path d="M 159.585938 103.320312 L 143.523438 117.984375 L 138.464844 112.449219 L 154.527344 97.78125 Z M 159.585938 103.320312 " clip-rule="nonzero"/></clipPath><clipPath id="id25"><path d="M 171.742188 71.746094 L 276.742188 71.746094 L 276.742188 176.746094 L 171.742188 176.746094 Z M 171.742188 71.746094 " clip-rule="nonzero"/></clipPath><clipPath id="id26"><path d="M 62.5625 167.632812 L 154.0625 167.632812 L 154.0625 259.132812 L 62.5625 259.132812 Z M 62.5625 167.632812 " clip-rule="nonzero"/></clipPath><clipPath id="id27"><path d="M 220.445312 212.585938 L 272.945312 212.585938 L 272.945312 265.085938 L 220.445312 265.085938 Z M 220.445312 212.585938 " clip-rule="nonzero"/></clipPath><clipPath id="id28"><path d="M 24.894531 24.894531 L 350.394531 24.894531 L 350.394531 350.394531 L 24.894531 350.394531 Z M 24.894531 24.894531 " clip-rule="nonzero"/></clipPath><clipPath id="id29"><path d="M 198 46 L 218 46 L 218 63 L 198 63 Z M 198 46 " clip-rule="nonzero"/></clipPath><clipPath id="id30"><path d="M 214.113281 64.246094 L 196.980469 50.84375 L 201.601562 44.9375 L 218.734375 58.339844 Z M 214.113281 64.246094 " clip-rule="nonzero"/></clipPath><clipPath id="id31"><path d="M 214.113281 64.246094 L 196.980469 50.84375 L 201.601562 44.9375 L 218.734375 58.339844 Z M 214.113281 64.246094 " clip-rule="nonzero"/></clipPath></defs><g clip-path="url(#id1)"><path fill="#2a2a2a" d="M 187.5 3.800781 C 85.761719 3.800781 3.800781 85.761719 3.800781 187.5 C 3.800781 289.238281 85.761719 371.199219 187.5 371.199219 C 288.296875 371.199219 371.199219 289.238281 371.199219 187.5 C 371.199219 85.761719 288.296875 3.800781 187.5 3.800781 Z M 187.5 342.9375 C 101.773438 342.9375 32.0625 273.226562 32.0625 187.5 C 32.0625 101.773438 101.773438 32.0625 187.5 32.0625 C 273.226562 32.0625 342.9375 101.773438 342.9375 187.5 C 342.9375 273.226562 273.226562 342.9375 187.5 342.9375 Z M 187.5 342.9375 " fill-opacity="1" fill-rule="nonzero"/></g><path fill="#6a7a8b" d="M 187.5 32.0625 C 101.773438 32.0625 32.0625 101.773438 32.0625 187.5 C 32.0625 273.226562 101.773438 342.9375 187.5 342.9375 C 273.226562 342.9375 342.9375 273.226562 342.9375 187.5 C 342.9375 101.773438 273.226562 32.0625 187.5 32.0625 Z M 187.5 32.0625 " fill-opacity="1" fill-rule="nonzero"/><g clip-path="url(#id2)"><path fill="#545454" d="M 243.613281 119.957031 C 231.085938 119.957031 222.992188 126.09375 222.992188 135.601562 C 222.992188 152.277344 244.289062 166.074219 255.160156 166.074219 C 264.402344 166.074219 265.882812 161.96875 265.882812 148.777344 C 265.882812 122.035156 248.839844 119.957031 243.613281 119.957031 Z M 255.160156 167.71875 C 243.882812 167.71875 221.34375 153.835938 221.34375 135.601562 C 221.34375 125.257812 230.292969 118.308594 243.613281 118.308594 C 255.179688 118.308594 267.535156 126.3125 267.535156 148.777344 C 267.535156 162.136719 265.8125 167.71875 255.160156 167.71875 " fill-opacity="1" fill-rule="nonzero"/></g><path fill="#545454" d="M 243.613281 126.542969 C 236.835938 126.542969 229.589844 128.925781 229.589844 135.601562 C 229.589844 148.1875 246.957031 159.484375 255.160156 159.484375 C 258.976562 159.484375 259.285156 159.484375 259.285156 148.777344 C 259.285156 128.710938 248.324219 126.542969 243.613281 126.542969 Z M 255.160156 161.132812 C 246.429688 161.132812 227.941406 149.054688 227.941406 135.601562 C 227.941406 127.707031 236.035156 124.894531 243.613281 124.894531 C 248.820312 124.894531 260.933594 127.226562 260.933594 148.777344 C 260.933594 159.972656 260.394531 161.132812 255.160156 161.132812 " fill-opacity="1" fill-rule="nonzero"/><path fill="#545454" d="M 241.816406 133.132812 C 241.765625 133.132812 236.191406 133.414062 236.191406 137.917969 C 236.191406 140.789062 237.5 141.367188 239.605469 141.367188 C 242.136719 141.367188 244.4375 136.832031 244.4375 135.066406 C 244.4375 134.59375 244.4375 133.132812 241.816406 133.132812 Z M 239.605469 143.015625 C 236.195312 143.015625 234.539062 141.347656 234.539062 137.917969 C 234.539062 132.578125 240.28125 131.484375 241.816406 131.484375 C 244.488281 131.484375 246.089844 132.824219 246.089844 135.066406 C 246.089844 137.4375 243.347656 143.015625 239.605469 143.015625 " fill-opacity="1" fill-rule="nonzero"/><path fill="#545454" d="M 200.574219 101.835938 C 200.523438 101.835938 194.949219 102.121094 194.949219 106.625 C 194.949219 109.492188 196.257812 110.074219 198.363281 110.074219 C 200.894531 110.074219 203.195312 105.535156 203.195312 103.773438 C 203.195312 103.296875 203.195312 101.835938 200.574219 101.835938 Z M 198.363281 111.71875 C 194.953125 111.71875 193.296875 110.054688 193.296875 106.625 C 193.296875 101.285156 199.039062 100.191406 200.574219 100.191406 C 203.246094 100.191406 204.847656 101.527344 204.847656 103.773438 C 204.847656 106.140625 202.105469 111.71875 198.363281 111.71875 " fill-opacity="1" fill-rule="nonzero"/><path fill="#545454" d="M 196.996094 116.660156 C 194.851562 116.660156 192.164062 119.484375 191.746094 120.847656 C 191.601562 121.292969 191.617188 121.660156 191.785156 121.96875 C 192.035156 122.425781 192.640625 122.8125 193.496094 123.0625 C 193.550781 123.082031 198.484375 124.253906 199.652344 120.449219 C 199.96875 119.421875 199.972656 118.609375 199.671875 118.050781 C 199.363281 117.476562 198.703125 117.058594 197.597656 116.738281 C 197.402344 116.6875 197.203125 116.660156 196.996094 116.660156 Z M 195.140625 124.890625 C 194.21875 124.890625 193.453125 124.761719 193.039062 124.644531 C 192.132812 124.382812 190.921875 123.839844 190.332031 122.753906 C 189.953125 122.046875 189.894531 121.242188 190.167969 120.359375 C 190.796875 118.316406 194.714844 114.203125 198.054688 115.160156 C 199.59375 115.605469 200.597656 116.292969 201.128906 117.265625 C 201.65625 118.242188 201.6875 119.445312 201.230469 120.941406 C 200.230469 124.183594 197.289062 124.890625 195.140625 124.890625 " fill-opacity="1" fill-rule="nonzero"/><path fill="#545454" d="M 249.542969 143.015625 C 246.667969 143.015625 246.089844 144.320312 246.089844 146.425781 C 246.089844 148.953125 250.632812 151.25 252.398438 151.25 C 252.875 151.25 254.335938 151.25 254.335938 148.628906 C 254.335938 148.578125 254.054688 143.015625 249.542969 143.015625 Z M 252.398438 152.894531 C 250.027344 152.894531 244.4375 150.160156 244.4375 146.425781 C 244.4375 143.019531 246.109375 141.367188 249.542969 141.367188 C 254.890625 141.367188 255.984375 147.097656 255.984375 148.628906 C 255.984375 151.300781 254.644531 152.894531 252.398438 152.894531 " fill-opacity="1" fill-rule="nonzero"/><path fill="#545454" d="M 212.449219 100.191406 C 212.03125 100.191406 211.527344 100.410156 210.921875 100.839844 C 209.394531 101.945312 209.601562 106.265625 210.402344 107.738281 C 210.613281 108.125 210.859375 108.347656 211.121094 108.40625 C 211.476562 108.484375 212.003906 108.304688 212.554688 107.90625 C 212.554688 107.90625 212.554688 107.90625 212.558594 107.90625 C 212.59375 107.878906 216.039062 105.105469 214.214844 101.773438 C 213.714844 100.859375 213.199219 100.332031 212.6875 100.214844 C 212.609375 100.203125 212.527344 100.191406 212.449219 100.191406 Z M 211.308594 110.074219 C 211.121094 110.074219 210.9375 110.054688 210.761719 110.015625 C 210.007812 109.839844 209.402344 109.339844 208.957031 108.523438 C 208.015625 106.8125 207.398438 101.355469 209.960938 99.507812 C 211.097656 98.691406 212.109375 98.394531 213.054688 98.609375 C 214.0625 98.839844 214.910156 99.617188 215.660156 100.980469 C 217.851562 104.984375 214.53125 108.515625 213.527344 109.242188 C 212.765625 109.789062 212.003906 110.074219 211.308594 110.074219 " fill-opacity="1" fill-rule="nonzero"/><g clip-path="url(#id3)"><path fill="#545454" d="M 208.96875 85.367188 C 196.496094 85.367188 178.449219 96.804688 178.449219 117.484375 C 178.449219 136.585938 186.660156 138.074219 189.175781 138.074219 C 198.425781 138.074219 226.292969 123.769531 226.292969 102.660156 C 226.292969 89.910156 217.347656 85.367188 208.96875 85.367188 Z M 189.175781 139.71875 C 186.273438 139.71875 176.800781 138.117188 176.800781 117.484375 C 176.800781 95.746094 195.824219 83.71875 208.96875 83.71875 C 218.140625 83.71875 227.941406 88.699219 227.941406 102.660156 C 227.941406 125.160156 199.144531 139.71875 189.175781 139.71875 " fill-opacity="1" fill-rule="nonzero"/></g><path fill="#545454" d="M 208.96875 91.957031 C 199.195312 91.957031 185.050781 101.046875 185.050781 117.484375 C 185.050781 127.957031 187.886719 131.484375 189.175781 131.484375 C 196.328125 131.484375 219.691406 119.203125 219.691406 102.660156 C 219.691406 95.558594 216.085938 91.957031 208.96875 91.957031 Z M 189.175781 133.132812 C 186.300781 133.132812 183.398438 128.292969 183.398438 117.484375 C 183.398438 99.984375 198.519531 90.308594 208.96875 90.308594 C 216.949219 90.308594 221.34375 94.695312 221.34375 102.660156 C 221.34375 120.140625 196.714844 133.132812 189.175781 133.132812 " fill-opacity="1" fill-rule="nonzero"/><g clip-path="url(#id4)"><path fill="#545454" d="M 264.859375 236.511719 C 264.699219 236.171875 264.523438 235.835938 264.308594 235.496094 C 262.714844 232.960938 260.222656 231.617188 257.335938 231.722656 C 256.371094 231.753906 255.414062 231.957031 254.496094 232.28125 C 255.226562 230.351562 255.136719 228.324219 254.246094 226.402344 C 255.761719 225.28125 257.597656 224.5625 259.417969 224.5 C 259.507812 224.5 259.597656 224.496094 259.6875 224.496094 C 262.160156 224.496094 264.273438 225.691406 265.652344 227.886719 C 267.078125 230.160156 267.195312 232.664062 265.976562 234.941406 C 265.675781 235.503906 265.289062 236.023438 264.859375 236.511719 Z M 260.664062 246.390625 C 257.371094 248.433594 252.609375 248.691406 249.929688 244.425781 C 248.523438 242.191406 248.394531 239.734375 249.546875 237.492188 C 251.394531 236.589844 252.984375 235.152344 253.96875 233.390625 C 255.050781 232.890625 256.214844 232.589844 257.367188 232.550781 C 257.457031 232.546875 257.546875 232.546875 257.632812 232.546875 C 260.109375 232.546875 262.21875 233.742188 263.601562 235.9375 C 266.28125 240.203125 263.957031 244.34375 260.664062 246.390625 Z M 255.734375 255.589844 C 252.988281 258.320312 248.40625 259.636719 244.828125 256.078125 C 242.738281 254.003906 242.328125 251.585938 242.890625 249.390625 C 243.019531 249.394531 243.140625 249.414062 243.269531 249.414062 C 243.367188 249.414062 243.46875 249.410156 243.570312 249.40625 C 246.097656 249.320312 248.59375 248.152344 250.390625 246.347656 C 251.960938 247.972656 253.902344 248.660156 255.855469 248.660156 C 256.664062 248.660156 257.472656 248.539062 258.257812 248.328125 C 258.824219 251 257.613281 253.722656 255.734375 255.589844 Z M 233.617188 255.351562 C 232.007812 253.753906 231.269531 251.808594 231.484375 249.722656 C 231.671875 247.855469 232.605469 246.007812 234.109375 244.511719 C 234.550781 244.074219 235.046875 243.675781 235.570312 243.324219 C 235.785156 244.082031 236.109375 244.855469 236.597656 245.632812 C 237.902344 247.707031 239.800781 248.972656 242.039062 249.308594 C 241.527344 251.417969 241.835938 253.707031 243.457031 255.78125 C 240.6875 257.835938 236.765625 258.480469 233.617188 255.351562 Z M 226.984375 241.046875 C 224.304688 236.78125 226.625 232.636719 229.917969 230.59375 C 232.097656 229.238281 234.921875 228.679688 237.359375 229.6875 C 237.171875 231.390625 237.582031 233.121094 238.601562 234.746094 C 238.625 234.777344 238.652344 234.808594 238.671875 234.84375 C 236.445312 236.664062 234.914062 239.410156 235.382812 242.445312 C 234.722656 242.859375 234.09375 243.351562 233.515625 243.925781 C 233.355469 244.085938 233.199219 244.253906 233.046875 244.425781 C 230.527344 244.460938 228.382812 243.269531 226.984375 241.046875 Z M 249.21875 244.867188 C 249.414062 245.175781 249.617188 245.457031 249.828125 245.722656 C 248.171875 247.390625 245.835938 248.496094 243.542969 248.574219 C 240.941406 248.664062 238.734375 247.460938 237.308594 245.191406 C 234.933594 241.414062 236.484375 237.738281 239.15625 235.523438 C 240.679688 237.46875 242.8125 238.527344 245.273438 238.527344 C 245.375 238.527344 245.472656 238.523438 245.574219 238.519531 C 246.539062 238.488281 247.496094 238.28125 248.417969 237.960938 C 247.554688 240.234375 247.828125 242.652344 249.21875 244.867188 Z M 238.984375 227.25 C 240.445312 224.519531 243.640625 222.535156 246.75 222.429688 C 249.335938 222.328125 251.554688 223.539062 252.984375 225.8125 C 254.410156 228.085938 254.527344 230.59375 253.3125 232.867188 C 251.847656 235.597656 248.65625 237.582031 245.546875 237.6875 C 242.972656 237.765625 240.742188 236.578125 239.3125 234.304688 C 237.882812 232.03125 237.765625 229.527344 238.984375 227.25 Z M 266.359375 227.445312 C 264.765625 224.910156 262.292969 223.570312 259.386719 223.671875 C 257.414062 223.738281 255.464844 224.476562 253.84375 225.648438 C 253.789062 225.558594 253.75 225.464844 253.691406 225.371094 C 252.097656 222.835938 249.609375 221.492188 246.71875 221.597656 C 243.269531 221.714844 239.867188 223.832031 238.246094 226.859375 C 237.902344 227.503906 237.652344 228.164062 237.5 228.828125 C 234.84375 227.8125 231.820312 228.429688 229.476562 229.886719 C 225.839844 232.144531 223.289062 236.734375 226.273438 241.484375 C 227.710938 243.769531 229.867188 245.070312 232.398438 245.234375 C 230.199219 248.265625 229.574219 252.511719 233.023438 255.941406 C 234.613281 257.519531 236.515625 258.339844 238.570312 258.339844 C 238.832031 258.339844 239.097656 258.328125 239.363281 258.300781 C 240.988281 258.136719 242.59375 257.472656 244 256.410156 C 244.082031 256.496094 244.152344 256.582031 244.238281 256.667969 C 245.964844 258.382812 247.894531 259.085938 249.777344 259.085938 C 252.234375 259.085938 254.609375 257.886719 256.328125 256.179688 C 258.414062 254.101562 259.75 251.0625 259.074219 248.074219 C 259.789062 247.816406 260.472656 247.488281 261.109375 247.09375 C 264.257812 245.140625 266.585938 241.433594 265.214844 237.390625 C 265.804688 236.769531 266.316406 236.078125 266.714844 235.332031 C 268.082031 232.78125 267.953125 229.980469 266.359375 227.445312 " fill-opacity="1" fill-rule="nonzero"/></g><path fill="#545454" d="M 228.738281 239.414062 C 228.636719 239.375 228.519531 239.375 228.417969 239.414062 C 228.371094 239.441406 228.320312 239.464844 228.285156 239.507812 C 228.203125 239.582031 228.160156 239.691406 228.160156 239.796875 C 228.160156 239.855469 228.167969 239.90625 228.195312 239.957031 C 228.210938 240.003906 228.242188 240.054688 228.285156 240.097656 C 228.320312 240.128906 228.371094 240.164062 228.417969 240.179688 C 228.46875 240.203125 228.527344 240.214844 228.578125 240.214844 C 228.628906 240.214844 228.6875 240.203125 228.738281 240.179688 C 228.789062 240.164062 228.835938 240.128906 228.871094 240.097656 C 228.957031 240.015625 228.996094 239.90625 228.996094 239.796875 C 228.996094 239.691406 228.957031 239.582031 228.871094 239.507812 C 228.835938 239.464844 228.789062 239.441406 228.738281 239.414062 " fill-opacity="1" fill-rule="nonzero"/><path fill="#545454" d="M 241.941406 233.183594 C 241.984375 233.226562 242.035156 233.261719 242.082031 233.277344 C 242.132812 233.300781 242.183594 233.308594 242.242188 233.308594 C 242.292969 233.308594 242.351562 233.300781 242.402344 233.277344 C 242.453125 233.261719 242.5 233.226562 242.535156 233.183594 C 242.578125 233.152344 242.601562 233.101562 242.628906 233.050781 C 242.652344 233.003906 242.660156 232.953125 242.660156 232.894531 C 242.660156 232.84375 242.652344 232.785156 242.628906 232.734375 C 242.601562 232.6875 242.578125 232.636719 242.535156 232.601562 C 242.5 232.5625 242.453125 232.527344 242.402344 232.511719 C 242.300781 232.46875 242.183594 232.46875 242.082031 232.511719 C 242.035156 232.527344 241.984375 232.5625 241.941406 232.601562 C 241.90625 232.636719 241.875 232.6875 241.859375 232.734375 C 241.832031 232.785156 241.824219 232.84375 241.824219 232.894531 C 241.824219 232.953125 241.832031 233.003906 241.859375 233.050781 C 241.875 233.101562 241.90625 233.152344 241.941406 233.183594 " fill-opacity="1" fill-rule="nonzero"/><path fill="#545454" d="M 241.730469 243.125 C 241.691406 243.082031 241.648438 243.058594 241.597656 243.03125 C 241.488281 242.992188 241.378906 242.992188 241.28125 243.03125 C 241.222656 243.058594 241.179688 243.082031 241.136719 243.125 C 241.105469 243.167969 241.070312 243.207031 241.046875 243.257812 C 241.03125 243.308594 241.011719 243.367188 241.011719 243.414062 C 241.011719 243.472656 241.03125 243.523438 241.046875 243.574219 C 241.070312 243.625 241.105469 243.671875 241.136719 243.714844 C 241.179688 243.75 241.222656 243.78125 241.28125 243.796875 C 241.332031 243.824219 241.378906 243.832031 241.441406 243.832031 C 241.488281 243.832031 241.546875 243.824219 241.597656 243.796875 C 241.648438 243.78125 241.691406 243.75 241.730469 243.714844 C 241.773438 243.671875 241.800781 243.625 241.824219 243.574219 C 241.839844 243.523438 241.859375 243.472656 241.859375 243.414062 C 241.859375 243.367188 241.839844 243.308594 241.824219 243.257812 C 241.800781 243.207031 241.773438 243.167969 241.730469 243.125 " fill-opacity="1" fill-rule="nonzero"/><path fill="#545454" d="M 235.882812 251.464844 C 235.722656 251.398438 235.539062 251.441406 235.421875 251.558594 C 235.390625 251.601562 235.355469 251.640625 235.339844 251.691406 C 235.3125 251.75 235.304688 251.800781 235.304688 251.847656 C 235.304688 251.90625 235.3125 251.964844 235.339844 252.015625 C 235.355469 252.066406 235.390625 252.105469 235.421875 252.148438 C 235.507812 252.222656 235.617188 252.273438 235.722656 252.273438 C 235.773438 252.273438 235.832031 252.257812 235.882812 252.242188 C 235.933594 252.214844 235.984375 252.191406 236.015625 252.148438 C 236.058594 252.105469 236.085938 252.066406 236.109375 252.015625 C 236.125 251.957031 236.144531 251.90625 236.144531 251.847656 C 236.144531 251.75 236.09375 251.640625 236.015625 251.558594 C 235.984375 251.523438 235.933594 251.492188 235.882812 251.464844 " fill-opacity="1" fill-rule="nonzero"/><path fill="#545454" d="M 248.5 253.140625 C 248.402344 253.097656 248.285156 253.097656 248.183594 253.140625 C 248.132812 253.164062 248.082031 253.195312 248.050781 253.230469 C 247.964844 253.3125 247.925781 253.421875 247.925781 253.53125 C 247.925781 253.578125 247.933594 253.636719 247.957031 253.6875 C 247.972656 253.738281 248.007812 253.777344 248.050781 253.820312 C 248.082031 253.863281 248.132812 253.886719 248.183594 253.910156 C 248.234375 253.929688 248.285156 253.945312 248.34375 253.945312 C 248.394531 253.945312 248.453125 253.929688 248.5 253.910156 C 248.550781 253.886719 248.601562 253.863281 248.636719 253.820312 C 248.675781 253.777344 248.703125 253.738281 248.726562 253.6875 C 248.753906 253.636719 248.761719 253.578125 248.761719 253.53125 C 248.761719 253.421875 248.71875 253.3125 248.636719 253.230469 C 248.601562 253.195312 248.550781 253.164062 248.5 253.140625 " fill-opacity="1" fill-rule="nonzero"/><path fill="#545454" d="M 254.859375 243.125 C 254.828125 243.082031 254.777344 243.058594 254.726562 243.03125 C 254.625 242.992188 254.511719 242.992188 254.410156 243.03125 C 254.359375 243.058594 254.308594 243.082031 254.273438 243.125 C 254.191406 243.199219 254.148438 243.308594 254.148438 243.414062 C 254.148438 243.523438 254.191406 243.632812 254.273438 243.714844 C 254.308594 243.75 254.359375 243.78125 254.410156 243.796875 C 254.457031 243.824219 254.519531 243.832031 254.566406 243.832031 C 254.625 243.832031 254.675781 243.824219 254.726562 243.796875 C 254.777344 243.78125 254.828125 243.75 254.859375 243.714844 C 254.902344 243.671875 254.9375 243.632812 254.953125 243.574219 C 254.976562 243.523438 254.984375 243.472656 254.984375 243.414062 C 254.984375 243.367188 254.976562 243.308594 254.953125 243.257812 C 254.9375 243.207031 254.902344 243.167969 254.859375 243.125 " fill-opacity="1" fill-rule="nonzero"/><path fill="#545454" d="M 262.222656 229.675781 C 262.125 229.632812 262.007812 229.632812 261.90625 229.675781 C 261.855469 229.691406 261.804688 229.726562 261.773438 229.765625 C 261.695312 229.839844 261.644531 229.949219 261.644531 230.058594 C 261.644531 230.164062 261.695312 230.273438 261.773438 230.347656 C 261.804688 230.390625 261.855469 230.425781 261.90625 230.441406 C 261.957031 230.464844 262.015625 230.472656 262.066406 230.472656 C 262.125 230.472656 262.175781 230.464844 262.222656 230.441406 C 262.273438 230.425781 262.324219 230.390625 262.359375 230.347656 C 262.441406 230.273438 262.484375 230.164062 262.484375 230.058594 C 262.484375 229.949219 262.441406 229.839844 262.359375 229.765625 C 262.324219 229.726562 262.273438 229.691406 262.222656 229.675781 " fill-opacity="1" fill-rule="nonzero"/><g clip-path="url(#id5)"><path fill="#545454" d="M 104.503906 185.574219 C 116.277344 185.574219 117.382812 200.035156 118.117188 209.660156 C 118.324219 212.339844 118.5 214.652344 118.859375 216.175781 C 119.574219 219.164062 121.058594 222.421875 122.371094 225.292969 C 123.8125 228.464844 125.0625 231.203125 125.257812 233.3125 C 125.355469 234.316406 125.332031 235.644531 125.308594 237.046875 C 125.261719 240.054688 125.195312 244.175781 126.476562 245.476562 C 126.746094 245.753906 127.0625 245.878906 127.472656 245.878906 C 129.886719 245.878906 131.808594 242.949219 133.503906 240.359375 C 134.292969 239.152344 135.042969 238.023438 135.789062 237.273438 C 136.765625 236.292969 138.792969 235.476562 140.929688 234.621094 C 143.796875 233.476562 147.351562 232.046875 147.351562 230.4375 C 147.351562 229.140625 144.554688 228.933594 141.851562 228.738281 C 139.414062 228.554688 136.894531 228.371094 135.304688 227.390625 C 128.847656 223.398438 127.644531 214.695312 126.367188 205.480469 C 124.515625 192.082031 122.601562 178.234375 103.910156 178.234375 C 93.070312 178.234375 69.308594 188.046875 69.308594 217.203125 C 69.308594 243.644531 88.472656 244.410156 90.660156 244.410156 C 97.164062 244.410156 106.242188 240.164062 106.242188 233.261719 C 106.242188 228.042969 103.613281 226.222656 102.035156 225.601562 C 102.515625 227.585938 103.03125 231.449219 100.914062 234.484375 C 99.046875 237.167969 95.59375 238.527344 90.660156 238.527344 C 79.242188 238.527344 76.671875 222.734375 76.671875 217.203125 C 76.671875 197.191406 94.386719 185.984375 103.882812 185.585938 C 104.089844 185.574219 104.296875 185.574219 104.503906 185.574219 Z M 127.472656 247.351562 C 126.667969 247.351562 125.976562 247.070312 125.429688 246.507812 C 123.710938 244.765625 123.777344 240.652344 123.835938 237.023438 C 123.859375 235.660156 123.882812 234.375 123.796875 233.449219 C 123.617188 231.589844 122.359375 228.824219 121.03125 225.902344 C 119.6875 222.964844 118.171875 219.640625 117.429688 216.515625 C 117.042969 214.882812 116.859375 212.511719 116.652344 209.769531 C 115.914062 200.15625 114.910156 187.046875 104.480469 187.046875 C 104.300781 187.046875 104.125 187.046875 103.941406 187.058594 C 95.1875 187.417969 78.140625 198.390625 78.140625 217.203125 C 78.140625 223.683594 81.203125 237.058594 90.660156 237.058594 C 95.085938 237.058594 98.128906 235.90625 99.707031 233.644531 C 102.1875 230.089844 100.292969 224.867188 100.277344 224.808594 C 100.191406 224.574219 100.230469 224.308594 100.386719 224.109375 C 100.539062 223.90625 100.777344 223.792969 101.042969 223.828125 C 101.109375 223.832031 107.714844 224.601562 107.714844 233.261719 C 107.714844 241.078125 97.78125 245.878906 90.660156 245.878906 C 88.324219 245.878906 67.835938 245.078125 67.835938 217.203125 C 67.835938 186.949219 92.609375 176.761719 103.910156 176.761719 C 123.882812 176.761719 125.976562 191.910156 127.828125 205.277344 C 129.054688 214.136719 130.210938 222.507812 136.082031 226.136719 C 137.363281 226.929688 139.699219 227.101562 141.960938 227.269531 C 145.332031 227.519531 148.824219 227.78125 148.824219 230.4375 C 148.824219 233.046875 145.089844 234.539062 141.484375 235.988281 C 139.574219 236.753906 137.59375 237.546875 136.824219 238.308594 C 136.1875 238.953125 135.484375 240.027344 134.738281 241.164062 C 132.929688 243.921875 130.679688 247.351562 127.472656 247.351562 " fill-opacity="1" fill-rule="nonzero"/></g><path fill="#545454" d="M 145.140625 245.878906 C 145.050781 245.878906 144.957031 245.863281 144.867188 245.828125 C 142.695312 244.945312 140.984375 242.980469 139.476562 241.25 C 138.3125 239.910156 137.113281 238.535156 136.300781 238.527344 C 135.898438 238.527344 135.570312 238.195312 135.570312 237.785156 C 135.570312 237.382812 135.902344 237.058594 136.304688 237.058594 C 136.304688 237.058594 136.304688 237.058594 136.3125 237.058594 C 137.785156 237.0625 139.085938 238.554688 140.585938 240.285156 C 141.984375 241.894531 143.570312 243.714844 145.417969 244.460938 C 145.796875 244.617188 145.976562 245.046875 145.828125 245.421875 C 145.707031 245.707031 145.433594 245.878906 145.140625 245.878906 " fill-opacity="1" fill-rule="nonzero"/><g clip-path="url(#id6)"><path fill="#545454" d="M 142.195312 251.761719 C 142.117188 251.761719 142.035156 251.75 141.957031 251.722656 C 137.441406 250.171875 133.722656 244.328125 135.597656 237.597656 C 135.707031 237.199219 136.109375 236.972656 136.503906 237.085938 C 136.894531 237.195312 137.125 237.597656 137.015625 237.988281 C 135.203125 244.519531 139.175781 249.210938 142.4375 250.332031 C 142.816406 250.464844 143.023438 250.882812 142.894531 251.269531 C 142.789062 251.574219 142.5 251.761719 142.195312 251.761719 " fill-opacity="1" fill-rule="nonzero"/></g><g clip-path="url(#id7)"><g clip-path="url(#id8)"><g clip-path="url(#id9)"><path fill="#000000" d="M 209.605469 283.941406 C 211.128906 285.308594 211.21875 287.675781 209.8125 289.25 L 200.386719 299.765625 C 198.988281 301.347656 196.613281 301.503906 195.089844 300.140625 C 193.566406 298.773438 193.476562 296.40625 194.882812 294.832031 L 204.300781 284.328125 C 205.71875 282.746094 208.085938 282.578125 209.605469 283.941406 Z M 209.605469 283.941406 " fill-opacity="1" fill-rule="nonzero"/></g></g></g><g clip-path="url(#id10)"><g clip-path="url(#id11)"><g clip-path="url(#id12)"><path fill="#000000" d="M 202.847656 184.449219 C 204.507812 182.933594 207.117188 183.097656 208.683594 184.820312 L 219.183594 196.335938 C 220.765625 198.046875 220.679688 200.667969 219.019531 202.183594 C 217.355469 203.695312 214.75 203.53125 213.179688 201.808594 L 202.691406 190.308594 C 201.113281 188.574219 201.1875 185.960938 202.847656 184.449219 Z M 202.847656 184.449219 " fill-opacity="1" fill-rule="nonzero"/></g></g></g><g clip-path="url(#id13)"><g clip-path="url(#id14)"><g clip-path="url(#id15)"><path fill="#000000" d="M 108.375 271.683594 C 108.925781 269.714844 111.011719 268.585938 113.046875 269.15625 L 126.640625 272.972656 C 128.675781 273.53125 129.867188 275.59375 129.316406 277.558594 C 128.761719 279.527344 126.675781 280.65625 124.644531 280.085938 L 111.0625 276.273438 C 109.015625 275.699219 107.820312 273.652344 108.375 271.683594 Z M 108.375 271.683594 " fill-opacity="1" fill-rule="nonzero"/></g></g></g><g clip-path="url(#id16)"><g clip-path="url(#id17)"><g clip-path="url(#id18)"><path fill="#000000" d="M 308.308594 176.414062 C 308.347656 178.457031 306.671875 180.140625 304.5625 180.179688 L 290.445312 180.4375 C 288.332031 180.488281 286.601562 178.855469 286.5625 176.8125 C 286.523438 174.769531 288.199219 173.085938 290.308594 173.046875 L 304.414062 172.789062 C 306.539062 172.753906 308.273438 174.371094 308.308594 176.414062 Z M 308.308594 176.414062 " fill-opacity="1" fill-rule="nonzero"/></g></g></g><g clip-path="url(#id19)"><g clip-path="url(#id20)"><g clip-path="url(#id21)"><path fill="#000000" d="M 68.628906 125.761719 C 70.667969 125.941406 72.160156 127.78125 71.976562 129.886719 L 70.734375 143.953125 C 70.566406 146.054688 68.757812 147.605469 66.722656 147.425781 C 64.683594 147.246094 63.191406 145.40625 63.375 143.304688 L 64.613281 129.25 C 64.800781 127.132812 66.59375 125.582031 68.628906 125.761719 Z M 68.628906 125.761719 " fill-opacity="1" fill-rule="nonzero"/></g></g></g><g clip-path="url(#id22)"><g clip-path="url(#id23)"><g clip-path="url(#id24)"><path fill="#000000" d="M 141 115.222656 C 139.621094 113.710938 139.765625 111.34375 141.324219 109.921875 L 151.753906 100.402344 C 153.304688 98.96875 155.683594 99.046875 157.0625 100.558594 C 158.441406 102.066406 158.296875 104.433594 156.734375 105.855469 L 146.316406 115.367188 C 144.75 116.800781 142.378906 116.730469 141 115.222656 Z M 141 115.222656 " fill-opacity="1" fill-rule="nonzero"/></g></g></g><g clip-path="url(#id25)"><path fill="#d9d9d9" d="M 171.742188 71.746094 L 171.742188 176.746094 L 276.742188 176.746094 L 276.742188 71.746094 Z M 274.058594 174.0625 L 174.421875 174.0625 L 174.421875 74.425781 L 274.058594 74.425781 Z M 274.058594 174.0625 " fill-opacity="1" fill-rule="nonzero"/></g><g clip-path="url(#id26)"><path fill="#d9d9d9" d="M 62.5625 167.632812 L 62.5625 259.132812 L 154.0625 259.132812 L 154.0625 167.632812 Z M 151.726562 256.796875 L 64.898438 256.796875 L 64.898438 169.96875 L 151.722656 169.96875 L 151.722656 256.796875 Z M 151.726562 256.796875 " fill-opacity="1" fill-rule="nonzero"/></g><g clip-path="url(#id27)"><path fill="#d9d9d9" d="M 220.445312 212.585938 L 220.445312 265.085938 L 272.945312 265.085938 L 272.945312 212.585938 Z M 271.605469 263.746094 L 221.789062 263.746094 L 221.789062 213.929688 L 271.605469 213.929688 Z M 271.605469 263.746094 " fill-opacity="1" fill-rule="nonzero"/></g><g clip-path="url(#id28)"><path fill="#d9d9d9" d="M 187.644531 350.394531 C 97.730469 350.394531 24.894531 277.058594 24.894531 187.644531 C 24.894531 98.234375 97.730469 24.894531 187.644531 24.894531 C 277.558594 24.894531 350.394531 97.730469 350.394531 187.644531 C 350.394531 277.558594 277.058594 350.394531 187.644531 350.394531 Z M 187.644531 34.941406 C 103.257812 34.941406 34.941406 103.257812 34.941406 187.644531 C 34.941406 272.035156 103.257812 340.347656 187.644531 340.347656 C 272.035156 340.347656 340.347656 272.035156 340.347656 187.644531 C 340.347656 103.257812 271.53125 34.941406 187.644531 34.941406 Z M 187.644531 34.941406 " fill-opacity="1" fill-rule="nonzero"/></g><g clip-path="url(#id29)"><g clip-path="url(#id30)"><g clip-path="url(#id31)"><path fill="#000000" d="M 199.289062 47.898438 C 200.546875 46.285156 202.90625 46.035156 204.566406 47.335938 L 215.691406 56.039062 C 217.363281 57.328125 217.679688 59.6875 216.417969 61.296875 C 215.160156 62.910156 212.800781 63.15625 211.136719 61.859375 L 200.027344 53.164062 C 198.351562 51.855469 198.027344 49.507812 199.289062 47.898438 Z M 199.289062 47.898438 " fill-opacity="1" fill-rule="nonzero"/></g></g></g></svg>